<?xml version="1.0" standalone="no"?>
<!DOCTYPE svg PUBLIC "-//W3C//DTD SVG 20010904//EN"
 "http://www.w3.org/TR/2001/REC-SVG-20010904/DTD/svg10.dtd">
<svg version="1.0" xmlns="http://www.w3.org/2000/svg"
 width="260.000000pt" height="260.000000pt" viewBox="0 0 260.000000 260.000000"
 preserveAspectRatio="xMidYMid meet">
<metadata>
Created by potrace 1.11, written by Peter Selinger 2001-2013
</metadata>
<g transform="translate(0.000000,260.000000) scale(0.100000,-0.100000)"
fill="#000000" stroke="none">
<path d="M0 1300 l0 -1300 188 2 c172 3 187 4 184 21 -2 9 2 17 8 17 5 0 10
-5 10 -12 0 -6 3 -8 7 -4 4 4 -5 17 -20 30 -23 19 -25 25 -12 30 9 3 13 2 10
-3 -3 -5 -1 -12 3 -15 5 -3 8 7 7 22 -1 15 3 31 9 35 7 5 5 7 -4 4 -8 -2 -14
-10 -12 -16 1 -7 -2 -10 -8 -6 -7 4 -7 12 0 25 12 23 13 33 2 26 -5 -3 -9 1
-9 8 0 8 6 12 12 10 6 -3 12 2 12 10 0 8 -4 13 -8 11 -12 -8 -16 42 -4 64 6
12 13 20 16 19 2 -2 -1 2 -8 8 -14 12 -18 28 -5 20 4 -2 8 6 8 19 0 13 -4 21
-10 18 -5 -3 -6 -1 -2 5 4 6 2 20 -4 31 -7 14 -7 22 2 27 6 4 8 3 4 -4 -3 -6
-2 -13 2 -16 5 -3 8 7 7 22 -1 15 3 31 9 35 7 5 5 7 -4 4 -8 -2 -14 -10 -12
-16 1 -7 -2 -10 -8 -6 -7 4 -7 12 0 25 12 23 13 33 2 26 -5 -3 -9 1 -9 9 0 11
5 12 21 3 17 -8 19 -8 9 2 -6 7 -9 19 -6 26 3 8 0 14 -7 14 -6 0 -8 -5 -4 -12
5 -7 3 -8 -6 -3 -10 6 -9 11 5 22 18 13 18 13 -1 14 -11 0 -14 3 -6 6 10 4 10
8 0 21 -7 9 -8 13 -2 9 7 -4 14 2 17 13 6 22 -8 37 -16 18 -4 -9 -6 -10 -6 -1
-1 6 4 15 9 18 8 5 8 11 0 20 -9 10 -6 19 9 34 12 12 16 21 10 21 -5 0 -7 5
-3 12 5 8 1 9 -12 5 -18 -7 -18 -6 -1 7 18 14 18 14 0 19 -16 4 -16 5 1 6 20
1 20 1 0 17 -18 14 -18 15 6 10 14 -3 19 -3 12 0 -6 3 -9 11 -5 17 4 7 0 8
-13 4 -18 -7 -18 -7 0 8 20 15 20 15 0 15 -17 1 -17 2 5 20 13 11 18 20 12 20
-7 0 -9 5 -5 12 5 8 1 9 -12 5 -18 -7 -18 -6 -1 7 18 14 18 14 0 19 -16 4 -16
5 1 6 20 1 20 1 0 17 -18 14 -18 15 6 10 14 -3 19 -3 12 0 -6 3 -9 11 -5 17 4
7 0 8 -13 4 -18 -7 -18 -7 0 8 17 13 17 15 4 15 -9 0 -20 4 -23 10 -4 6 1 7
12 3 15 -6 16 -4 5 9 -10 13 -10 18 -1 24 8 4 9 3 5 -4 -11 -18 0 -14 15 5 8
9 9 14 3 10 -7 -4 -18 1 -25 10 -12 14 -11 15 11 8 22 -6 23 -6 8 6 -20 17
-24 37 -14 67 5 14 3 28 -4 37 -8 9 -8 15 0 20 8 5 6 15 -6 33 -17 26 -17 27
2 10 18 -16 19 -15 21 9 0 16 -2 21 -7 14 -5 -9 -9 -4 -12 13 -5 23 -3 24 10
14 12 -11 12 -7 -2 19 -16 32 -16 33 4 30 18 -3 59 -47 51 -55 -1 -2 0 -6 2
-9 8 -8 2 20 -7 35 -7 12 -4 12 14 2 20 -11 21 -10 11 9 -10 17 -9 20 4 15 8
-4 15 -10 15 -16 0 -5 6 -6 13 -2 7 5 6 0 -3 -11 -8 -10 -10 -16 -4 -12 7 4
14 0 18 -8 3 -8 2 -15 -2 -15 -6 0 -7 -53 -2 -70 1 -3 1 -29 0 -58 -1 -40 2
-52 13 -52 20 0 28 -25 14 -40 -9 -10 -9 -11 2 -5 11 6 13 2 7 -19 -3 -14 -2
-35 4 -46 8 -15 8 -20 -1 -20 -8 0 -8 -4 1 -15 7 -8 8 -15 3 -15 -5 0 -9 -9
-9 -20 0 -10 2 -17 4 -15 8 8 42 -15 42 -28 0 -7 -4 -6 -10 3 -5 8 -10 11 -10
5 1 -5 7 -18 15 -28 7 -11 11 -26 8 -35 -4 -9 -2 -13 4 -9 5 3 10 0 10 -8 0
-8 -3 -12 -7 -10 -4 2 -7 -9 -6 -25 1 -19 6 -30 16 -30 13 0 13 -1 0 -10 -13
-8 -8 -14 11 -12 4 1 6 -7 6 -16 0 -35 3 -43 14 -36 8 5 8 1 0 -14 -14 -27
-14 -39 1 -24 7 7 16 12 21 12 5 0 1 -7 -7 -16 -17 -16 -22 -39 -7 -30 5 3 14
-1 21 -9 11 -13 10 -14 -4 -9 -9 3 -16 1 -16 -5 0 -6 5 -11 11 -11 6 0 8 -13
5 -31 -4 -25 -2 -28 10 -18 11 9 14 8 14 -5 0 -10 4 -14 10 -11 5 3 10 -2 10
-12 0 -10 8 -28 18 -41 17 -21 18 -22 18 -3 0 11 -3 18 -7 15 -4 -2 -9 3 -12
11 -4 9 -1 12 7 9 7 -3 16 2 20 11 3 10 12 15 21 11 8 -3 15 0 15 6 0 9 3 9
12 0 16 -16 31 -15 22 0 -6 10 -4 10 8 0 10 -8 18 -9 22 -3 4 6 13 8 21 5 8
-4 12 -10 9 -15 -3 -5 2 -6 10 -3 9 3 13 11 9 17 -4 6 -1 7 8 2 7 -5 22 -10
31 -10 14 -1 15 1 6 12 -8 10 -7 12 5 8 8 -4 18 -2 21 4 4 6 13 8 20 5 8 -3
17 0 22 7 4 7 3 10 -3 6 -6 -4 -16 0 -23 8 -10 12 -10 15 0 15 7 0 10 7 7 15
-4 8 -2 17 3 20 6 4 10 12 10 18 0 7 -4 6 -10 -3 -7 -12 -9 -10 -7 7 0 12 5
19 9 17 5 -3 6 8 3 25 -4 25 -2 31 12 31 15 0 16 2 3 10 -13 8 -13 10 1 10 12
0 15 7 11 26 -3 16 -1 24 4 21 6 -3 11 3 11 14 1 12 -3 17 -10 13 -7 -3 -1 3
11 13 14 11 22 28 20 39 -1 10 2 18 9 17 6 -1 10 5 9 15 -2 9 4 23 13 30 9 8
10 10 2 6 -10 -5 -12 -3 -7 5 5 7 15 10 23 6 12 -4 13 -2 5 7 -6 7 -11 16 -11
21 -1 4 -2 10 -2 15 -5 29 -3 39 11 56 9 11 10 16 2 12 -8 -5 -12 0 -12 14 0
13 4 19 12 14 7 -5 8 -3 3 7 -14 21 -15 62 -3 76 6 7 7 13 2 13 -5 0 -2 6 6
13 21 17 48 53 33 43 -7 -4 -13 -3 -13 1 0 5 6 15 13 22 10 11 9 12 -3 6 -13
-8 -13 -6 -2 7 10 13 10 17 0 20 -10 4 -10 9 2 23 13 17 13 18 0 11 -12 -6
-11 -4 1 6 9 7 14 19 12 26 -3 6 3 12 12 12 9 0 13 5 10 10 -4 6 -1 17 5 25
10 12 10 15 -1 15 -10 0 -10 3 -1 12 15 15 16 32 2 23 -11 -7 -14 8 -3 19 4 4
8 17 9 29 1 12 3 29 5 37 2 8 -2 14 -9 12 -8 -1 -11 2 -7 8 4 7 13 7 26 -1 19
-10 20 -9 9 11 -7 13 -8 20 -2 16 7 -4 9 9 8 34 -2 30 2 44 17 57 11 10 17 13
14 6 -4 -6 0 -19 9 -27 11 -12 12 -16 2 -16 -10 0 -9 -3 2 -10 13 -9 13 -10 0
-10 -13 0 -13 -1 0 -10 13 -9 13 -10 0 -10 -13 0 -13 -1 0 -10 13 -9 13 -11 0
-20 -13 -9 -13 -11 0 -20 12 -8 12 -10 1 -10 -11 0 -11 -3 0 -17 10 -11 10
-14 2 -9 -7 4 -13 3 -13 -3 0 -6 -7 -8 -15 -4 -10 3 -15 0 -13 -8 2 -7 -2 -13
-9 -14 -23 0 -26 -15 -3 -15 23 0 23 0 4 -15 -18 -13 -18 -14 6 -8 24 5 25 5
5 -11 -19 -15 -19 -16 -1 -9 15 5 17 3 11 -7 -6 -10 -4 -12 8 -7 9 3 19 1 23
-5 5 -7 2 -8 -6 -3 -10 6 -12 4 -7 -8 3 -9 1 -18 -6 -21 -9 -3 -8 -5 1 -5 7
-1 10 -5 7 -11 -3 -5 0 -10 7 -10 9 0 9 -3 -2 -10 -12 -8 -12 -10 -1 -10 11 0
11 -3 0 -17 -11 -13 -11 -17 -1 -21 10 -3 10 -7 0 -20 -11 -13 -11 -14 2 -7
13 8 13 7 1 -9 -13 -15 -13 -19 0 -27 12 -7 12 -9 -1 -9 -9 0 -11 -3 -5 -8 12
-9 13 -62 1 -81 -5 -8 -4 -16 4 -21 10 -6 9 -9 -1 -13 -12 -5 -12 -6 0 -6 11
-1 11 -4 0 -18 -11 -13 -11 -17 -1 -21 10 -3 10 -7 0 -20 -11 -13 -11 -15 2
-7 12 6 13 5 3 -6 -14 -14 -18 -33 -5 -25 4 2 8 -4 8 -14 0 -10 -4 -16 -8 -14
-13 8 -9 -11 5 -25 7 -9 8 -11 1 -7 -8 4 -12 -6 -12 -30 0 -25 3 -33 9 -23 5
8 9 9 9 3 0 -6 -3 -14 -7 -18 -4 -3 -8 -16 -10 -27 -2 -14 1 -18 9 -13 8 5 7
0 -2 -11 -9 -11 -10 -16 -2 -11 6 4 12 2 12 -3 0 -6 -4 -11 -9 -11 -11 0 -9
-19 3 -39 6 -10 5 -12 -2 -7 -7 4 -12 2 -12 -3 0 -6 5 -11 11 -11 8 0 7 -6 -2
-17 -11 -13 -11 -17 -1 -21 10 -3 10 -7 0 -20 -11 -13 -11 -14 2 -7 13 8 13 7
1 -8 -8 -11 -9 -17 -3 -17 6 0 9 -7 6 -15 -4 -8 -10 -13 -14 -10 -5 3 -6 -4
-3 -15 3 -11 9 -18 13 -15 4 2 5 -8 3 -23 -2 -15 -5 -32 -5 -39 -1 -7 -5 -10
-10 -7 -5 3 -5 11 -1 17 4 8 1 7 -9 -1 -17 -14 -16 -54 2 -60 5 -2 10 -12 10
-23 0 -10 6 -19 13 -20 6 0 3 -4 -8 -9 -11 -5 -15 -9 -9 -9 19 -1 23 -38 7
-61 -8 -11 -11 -20 -6 -19 20 4 24 -2 12 -18 -12 -15 -12 -16 1 -8 13 8 13 7
1 -9 -13 -15 -13 -19 0 -27 12 -7 12 -9 -1 -9 -9 0 -11 -3 -5 -8 12 -8 13 -61
2 -79 -4 -6 -2 -15 4 -18 5 -4 7 -14 4 -24 -11 -26 -13 -61 -4 -61 5 0 6 -7 3
-15 -6 -14 18 -15 197 -13 187 3 204 4 203 20 -1 10 2 19 7 19 5 1 13 2 19 3
5 0 15 7 22 14 11 11 9 12 -7 6 -18 -7 -18 -6 -6 9 7 9 10 17 6 17 -4 0 -1 8
6 17 10 11 10 14 2 9 -9 -5 -13 0 -13 14 0 12 4 19 9 15 6 -3 7 6 2 22 -4 16
-6 34 -4 41 3 7 0 19 -7 26 -7 10 -8 16 0 21 5 3 7 18 4 32 -4 16 -3 24 3 20
6 -4 8 3 5 18 -2 14 -9 28 -14 31 -5 3 -4 12 3 20 9 11 9 17 0 28 -9 11 -9 16
0 22 8 5 9 3 4 -6 -5 -8 -4 -11 3 -6 6 4 9 13 6 21 -4 8 -11 12 -18 8 -7 -5
-7 -2 1 8 7 8 9 26 6 39 -5 18 -3 21 8 15 11 -7 12 -6 3 6 -6 8 -10 38 -8 66
1 29 -2 56 -7 59 -6 3 -5 12 2 21 10 12 10 16 -2 24 -11 7 -11 9 0 9 9 0 12 8
9 25 -3 13 0 26 6 29 7 3 7 5 -1 5 -7 1 -13 6 -13 12 0 5 5 7 11 3 8 -5 8 -1
0 13 -7 14 -7 24 2 33 9 10 9 11 0 6 -17 -9 -10 61 7 77 10 9 11 9 6 0 -4 -7
-3 -13 3 -13 5 0 11 5 13 11 3 8 10 6 21 -5 9 -10 17 -13 17 -7 0 6 11 11 25
11 14 0 25 -4 25 -10 0 -5 5 -10 11 -10 5 0 7 5 4 10 -3 6 1 10 9 10 9 0 16
-4 16 -9 0 -5 11 -8 24 -7 13 0 22 4 19 9 -2 4 5 7 16 7 12 0 21 -4 21 -8 0
-4 15 -7 33 -7 17 1 31 6 30 12 -1 6 10 9 25 7 15 -2 42 -4 60 -6 17 -1 32 -7
32 -13 0 -5 5 -2 11 8 5 9 7 22 3 28 -4 8 0 8 15 0 18 -10 20 -9 14 6 -6 16
-5 16 10 4 16 -12 17 -12 10 5 -6 17 -5 17 10 5 15 -12 17 -11 17 5 0 16 2 16
9 4 6 -8 7 -18 4 -24 -3 -5 -1 -6 6 -2 6 4 9 12 6 17 -6 8 9 13 28 10 5 -1 6
3 2 9 -3 6 -12 7 -18 3 -7 -4 -6 0 2 10 10 13 17 14 33 6 15 -8 19 -8 14 0 -8
12 65 91 83 91 5 0 8 -9 6 -20 -2 -12 0 -18 6 -15 5 4 6 11 3 17 -4 7 -2 8 4
4 6 -4 9 -12 6 -20 -3 -7 2 -13 10 -13 18 0 9 27 -15 44 -15 11 -16 20 -10 52
1 2 8 -2 16 -9 14 -12 19 -7 16 15 -1 6 5 2 12 -7 16 -20 35 -10 31 15 -1 11
2 17 9 14 11 -4 13 13 8 67 -1 5 -9 2 -18 -5 -15 -12 -15 -10 1 8 10 12 16 29
13 37 -4 9 -1 13 7 10 8 -3 12 5 12 26 0 21 -4 29 -12 26 -8 -3 -11 1 -7 9 3
8 10 12 16 8 7 -4 8 0 4 11 -6 14 -3 17 9 12 13 -5 14 -3 6 6 -13 16 -13 30 0
46 6 6 6 12 1 12 -5 0 -9 9 -10 20 -1 11 3 20 9 20 6 0 6 6 -2 15 -11 14 -7
19 12 16 4 0 4 7 1 16 -5 12 -2 15 10 10 11 -4 14 -2 11 7 -3 8 0 17 6 21 8 5
8 11 -1 22 -10 12 -10 16 2 24 8 5 9 9 3 9 -6 0 -11 7 -11 15 0 8 5 15 11 15
6 0 5 4 -2 9 -8 4 -14 12 -14 16 0 4 6 12 14 16 7 5 8 9 2 9 -6 0 -11 7 -11
15 0 8 5 15 11 15 7 0 7 3 1 8 -15 11 -17 32 -3 32 10 0 10 2 0 9 -8 4 -14 12
-14 16 0 4 6 12 14 16 10 7 10 9 1 9 -7 0 -13 7 -13 15 0 8 6 15 13 15 9 0 9
2 -1 9 -8 4 -14 12 -14 16 0 4 6 12 14 16 7 5 8 9 2 9 -14 0 -14 30 0 30 6 0
5 4 -2 9 -8 4 -14 12 -14 16 0 4 6 12 14 16 10 7 10 9 1 9 -7 0 -13 9 -13 20
0 14 -7 20 -22 20 -19 0 -20 2 -8 10 8 5 10 10 3 10 -12 0 -12 24 0 36 4 4 2
14 -5 21 -9 11 -9 17 3 24 11 7 11 9 0 9 -7 0 -11 6 -8 15 4 8 -4 22 -19 34
-16 13 -20 21 -12 24 10 4 10 6 -1 6 -11 1 -11 4 0 18 12 15 12 16 -5 10 -16
-6 -17 -5 -6 8 10 12 10 15 0 15 -7 0 -10 7 -7 15 4 8 2 17 -4 20 -5 4 -7 10
-5 14 3 4 1 13 -4 21 -7 12 -11 12 -27 0 -10 -8 -15 -10 -10 -5 4 4 0 19 -8
32 -9 13 -14 27 -11 31 3 4 0 14 -5 22 -8 13 -10 13 -19 0 -8 -11 -9 -7 -4 15
6 27 5 28 -8 12 -13 -18 -14 -17 -14 10 1 21 -3 27 -16 25 -9 -1 -20 3 -24 9
-5 8 -3 10 7 4 8 -4 5 1 -6 12 -11 11 -27 20 -35 21 -33 2 -52 9 -70 25 -11 9
-20 12 -20 6 0 -5 -5 -7 -10 -4 -6 4 -7 11 -4 17 5 7 1 9 -9 5 -9 -3 -19 -1
-23 5 -4 7 -3 8 4 4 7 -4 12 -2 12 3 0 15 -13 14 -29 -1 -8 -8 -11 -8 -8 -2 4
7 -2 14 -13 17 -11 3 -18 1 -14 -4 3 -5 1 -9 -5 -9 -5 0 -13 5 -16 10 -5 8
-11 7 -21 -1 -11 -9 -14 -8 -14 2 0 9 -3 10 -8 4 -8 -12 -32 -13 -49 -2 -6 4
-14 3 -18 -3 -3 -5 -11 -10 -16 -10 -6 0 -7 6 -3 13 5 8 2 8 -9 -2 -14 -11
-17 -11 -17 0 0 9 -3 10 -8 4 -11 -15 -32 -17 -32 -3 0 6 -6 4 -13 -6 -12 -16
-14 -16 -26 -2 -11 12 -17 14 -27 5 -11 -9 -14 -8 -14 2 0 9 -3 10 -8 4 -10
-14 -52 -17 -52 -4 0 5 -5 7 -10 4 -6 -4 -8 -12 -4 -18 3 -7 0 -5 -8 4 -7 9
-18 14 -24 12 -6 -2 -14 5 -17 17 -5 19 -12 20 -271 20 -257 0 -266 -1 -266
-19 0 -11 -5 -23 -12 -27 -6 -4 -8 -3 -4 4 3 6 2 14 -4 17 -6 4 -10 3 -9 -2 1
-4 0 -10 -1 -13 -8 -22 -6 -100 4 -100 7 0 8 -3 0 -8 -27 -19 -52 -79 -49
-119 2 -30 -1 -41 -9 -36 -6 4 -5 -1 3 -10 13 -17 7 -22 -21 -18 -4 0 -5 -6
-2 -14 4 -9 0 -15 -7 -15 -11 0 -11 -3 1 -10 8 -5 10 -10 4 -10 -7 0 -10 -13
-9 -29 2 -20 -2 -28 -10 -25 -7 3 -16 0 -21 -7 -4 -7 -3 -10 3 -6 6 4 16 1 22
-7 9 -11 6 -13 -16 -9 -18 2 -22 0 -13 -4 8 -5 15 -18 16 -30 0 -12 -3 -20 -7
-17 -4 2 -11 -1 -15 -7 -4 -8 -3 -9 4 -5 7 4 12 2 12 -4 0 -6 5 -8 12 -4 7 5
8 3 4 -5 -5 -7 -15 -10 -23 -7 -9 4 -11 2 -6 -7 14 -23 12 -39 -4 -33 -13 5
-13 4 -4 -8 9 -11 8 -15 -4 -20 -10 -3 -13 -11 -9 -18 6 -10 5 -10 -7 -1 -12
10 -15 8 -15 -7 0 -10 3 -17 7 -14 4 2 5 -5 2 -16 -3 -11 -9 -17 -14 -14 -5 3
-6 -2 -3 -10 3 -9 11 -16 16 -16 7 0 6 -5 -1 -13 -8 -10 -7 -17 1 -25 8 -8 7
-13 -6 -18 -12 -4 -14 -10 -6 -19 7 -8 4 -17 -13 -31 l-22 -19 20 25 20 25
-27 -24 c-23 -20 -29 -41 -12 -41 3 0 2 5 -2 12 -4 7 -3 8 5 4 7 -5 8 -13 4
-19 -13 -18 -17 -70 -5 -63 6 4 8 -2 5 -14 -3 -11 -10 -17 -16 -13 -6 4 -7 1
-2 -8 14 -22 13 -80 -2 -75 -7 3 -10 -2 -8 -14 3 -14 -1 -17 -12 -13 -11 4
-14 2 -9 -5 4 -7 2 -12 -5 -12 -8 0 -8 -4 1 -15 10 -12 10 -15 -1 -15 -9 0
-10 -3 -4 -8 6 -4 11 -20 12 -35 2 -23 -1 -27 -14 -22 -14 5 -13 2 2 -15 19
-21 19 -22 -5 -41 -14 -10 -31 -19 -37 -19 -7 0 -13 -4 -13 -9 0 -5 10 -7 23
-5 19 4 20 3 3 -4 -15 -7 -17 -10 -6 -17 10 -6 9 -11 -5 -22 -14 -9 -15 -13
-4 -13 12 0 12 -2 -1 -9 -16 -11 -33 -4 -24 10 3 5 1 16 -6 24 -6 8 -7 16 -2
19 5 3 8 19 7 35 -2 20 2 28 13 27 8 0 16 7 18 18 2 14 0 16 -9 7 -6 -6 -15
-11 -21 -11 -6 0 -5 5 2 12 16 16 15 31 0 22 -7 -4 -2 6 12 22 14 16 18 23 10
17 -20 -18 -35 -16 -20 2 7 8 10 16 6 16 -3 1 -10 2 -15 3 -5 0 -13 5 -18 10
-5 5 -3 6 5 2 8 -5 12 0 12 13 0 12 -5 21 -11 21 -5 0 -7 -4 -4 -10 3 -6 -1
-7 -10 -4 -9 4 -14 9 -11 12 3 2 1 13 -5 23 -7 14 -6 19 3 19 10 0 10 2 -1 9
-11 7 -11 9 0 14 9 4 10 8 4 14 -5 4 -10 24 -10 43 0 26 -4 34 -16 32 -13 -2
-16 9 -16 60 -2 104 -2 108 -17 108 -16 0 -29 27 -16 35 5 3 12 0 16 -6 5 -8
3 -9 -6 -4 -9 6 -11 4 -6 -4 9 -14 19 -7 22 14 1 8 -2 13 -7 9 -5 -3 -9 0 -9
6 0 6 -5 8 -12 4 -6 -4 -8 -3 -4 4 3 6 2 13 -4 17 -5 3 -10 12 -10 18 0 7 4 6
10 -3 8 -11 9 -7 4 15 -4 17 -11 33 -17 36 -5 4 -3 9 4 12 11 4 10 6 -2 6 -21
1 -43 47 -27 57 6 4 8 3 4 -4 -3 -6 -2 -13 3 -16 12 -8 8 13 -8 43 -11 21 -11
23 1 18 8 -3 15 1 15 9 0 7 -5 10 -10 7 -6 -4 -8 1 -4 11 4 9 3 15 -2 11 -6
-3 -15 3 -21 12 -9 15 -10 14 -5 -7 5 -20 4 -21 -4 -9 -10 15 -9 26 1 69 2 9
-3 14 -11 12 -12 -3 -12 0 -2 11 9 12 9 16 -1 20 -10 4 -9 6 1 6 11 1 10 5 -5
17 -10 8 -13 13 -6 9 6 -3 12 -1 12 4 0 6 -4 11 -10 11 -5 0 -10 5 -10 11 0 6
-7 17 -15 25 -11 11 -12 20 -5 34 7 13 6 20 -3 24 -6 4 -1 4 13 2 23 -5 23 -4
8 8 -19 14 -25 32 -8 21 6 -3 10 1 10 10 0 10 -5 13 -12 9 -8 -5 -9 -2 -5 9 8
20 -3 22 -23 5 -12 -11 -12 -10 -2 4 9 10 9 18 3 22 -6 4 -8 13 -5 21 4 8 11
12 18 8 6 -4 5 1 -3 10 -7 9 -17 15 -21 12 -5 -3 -11 -1 -15 5 -3 5 -1 10 6
10 8 0 8 4 -1 15 -10 13 -51 15 -251 15 l-239 0 0 -1300z m2275 1170 c-3 -5
-12 -10 -18 -10 -7 0 -6 4 3 10 19 12 23 12 15 0z m180 -210 c3 -5 -1 -10 -10
-10 -9 0 -13 5 -10 10 3 6 8 10 10 10 2 0 7 -4 10 -10z m-597 -189 c5 14 32
11 32 -3 0 -8 3 -9 8 -3 14 19 32 15 43 -9 8 -16 18 -23 30 -21 10 2 18 1 16
-3 -1 -4 3 -9 8 -10 23 -8 35 -25 26 -36 -7 -8 0 -16 22 -26 18 -8 35 -14 38
-13 3 1 6 -4 6 -12 0 -11 -4 -11 -22 1 -12 8 -25 11 -30 7 -4 -5 -5 -2 0 6 5
10 4 12 -4 7 -6 -4 -9 -12 -5 -17 3 -5 9 -7 14 -4 4 2 23 -9 41 -26 19 -17 29
-29 24 -26 -6 3 -17 -4 -24 -16 -8 -12 -10 -19 -6 -15 5 4 15 2 24 -5 14 -11
14 -10 2 6 -9 11 -10 17 -2 17 10 0 13 -7 10 -27 -1 -5 -5 -7 -10 -6 -5 2 -9
-2 -9 -7 0 -5 4 -10 8 -10 4 0 8 -9 8 -21 0 -19 -1 -19 -13 -3 -11 15 -15 16
-26 4 -9 -10 -9 -12 1 -6 7 5 12 1 12 -9 0 -10 -5 -13 -12 -9 -9 5 -9 2 1 -9
11 -14 11 -17 0 -17 -8 0 -4 -9 11 -20 15 -12 18 -18 8 -14 -13 4 -18 1 -18
-11 0 -10 4 -13 13 -9 8 5 8 2 -2 -9 -7 -9 -10 -17 -6 -17 4 0 2 -7 -5 -15
-11 -13 -10 -14 6 -8 16 6 17 4 7 -8 -12 -14 -15 -61 -3 -54 7 4 24 -17 28
-35 3 -10 -3 -9 -20 5 -15 13 -18 14 -10 3 9 -11 10 -18 2 -23 -8 -5 -7 -11 2
-23 11 -13 11 -14 -1 -7 -11 6 -13 4 -8 -8 3 -10 2 -17 -3 -17 -6 0 -9 -6 -8
-12 2 -8 -9 -13 -28 -13 -17 0 -31 -5 -31 -12 0 -6 7 -9 16 -6 14 4 14 4 1 -6
-8 -6 -23 -8 -34 -5 -12 4 -16 2 -12 -5 4 -6 2 -11 -3 -11 -6 0 -10 -6 -9 -12
2 -7 -7 -14 -19 -16 -13 -2 -23 -11 -23 -20 0 -14 -2 -15 -9 -2 -6 8 -7 18 -5
22 11 17 -7 7 -32 -19 -15 -16 -24 -23 -20 -16 4 7 -2 17 -13 22 -14 8 -20 7
-24 -3 -4 -9 -18 -14 -39 -12 -18 2 -37 -2 -41 -8 -6 -7 -7 -6 -4 4 2 10 15
15 40 14 28 -2 37 2 37 15 0 9 -3 12 -8 6 -4 -6 -18 -10 -32 -10 -14 1 -33 -3
-42 -7 -17 -8 -23 0 -19 26 1 4 -4 15 -11 24 -10 12 -10 14 0 8 9 -6 12 3 9
38 -1 25 -6 48 -10 52 -4 4 1 16 10 27 10 11 12 17 6 13 -9 -5 -13 0 -13 14 0
12 4 19 9 16 4 -3 6 6 3 19 -2 14 -9 28 -14 31 -5 3 -1 15 9 27 10 11 13 17 7
14 -15 -9 -27 20 -12 29 7 5 8 2 3 -6 -5 -8 -4 -11 3 -6 15 9 3 38 -12 29 -6
-3 -2 4 9 17 11 13 14 20 8 16 -9 -5 -13 0 -13 14 0 14 4 19 13 14 9 -6 9 -4
1 7 -6 8 -10 38 -8 66 1 29 -2 56 -7 59 -6 4 -6 11 2 20 9 11 8 18 -2 31 -11
14 -12 15 -1 9 11 -7 13 -1 9 27 -2 19 0 41 7 48 7 8 7 10 0 6 -6 -3 -11 0
-11 7 0 14 67 13 90 -1 8 -4 8 -2 -1 9 -11 14 -9 15 25 3 21 -8 39 -9 41 -4z
m-1468 -387 c0 -8 -19 -13 -24 -6 -3 5 1 9 9 9 8 0 15 -2 15 -3z m8 -101 c-9
-12 -9 -15 0 -9 6 4 12 3 12 -1 0 -5 -6 -15 -12 -22 -10 -11 -10 -13 0 -7 6 4
12 2 12 -3 0 -6 -6 -11 -12 -11 -8 0 -9 -3 -3 -8 14 -10 19 -46 6 -37 -6 3
-11 1 -11 -4 0 -6 4 -11 9 -11 5 0 12 -7 15 -16 6 -14 4 -15 -9 -4 -14 12 -15
11 -4 -13 10 -21 9 -30 -2 -44 -9 -11 -10 -14 -1 -9 8 4 12 1 12 -9 0 -11 -5
-15 -14 -12 -10 4 -13 1 -9 -9 3 -9 0 -12 -8 -9 -15 6 -20 95 -6 95 5 0 7 -7
4 -15 -4 -8 -3 -17 2 -19 15 -9 8 29 -10 54 -13 19 -15 30 -7 43 5 10 7 25 4
33 -4 10 -2 13 7 8 8 -5 7 -2 -2 9 -11 14 -11 17 0 17 10 0 10 3 1 12 -9 9 -8
16 6 28 14 15 18 15 25 3 5 -8 3 -21 -5 -30z m1552 -217 c0 -3 -4 -8 -10 -11
-5 -3 -10 -1 -10 4 0 6 5 11 10 11 6 0 10 -2 10 -4z m-1520 -26 c0 -5 -7 -7
-15 -4 -8 4 -15 8 -15 10 0 2 7 4 15 4 8 0 15 -4 15 -10z m1480 -434 c0 -2 -8
-10 -17 -17 -16 -13 -17 -12 -4 4 13 16 21 21 21 13z m-660 -456 c0 -5 -2 -10
-4 -10 -3 0 -8 5 -11 10 -3 6 -1 10 4 10 6 0 11 -4 11 -10z m-870 -124 c0 -2
-7 -7 -16 -10 -8 -3 -12 -2 -9 4 6 10 25 14 25 6z"/>
<path d="M1996 2002 c-3 -5 1 -9 9 -9 8 0 12 4 9 9 -3 4 -7 8 -9 8 -2 0 -6 -4
-9 -8z"/>
<path d="M2215 2521 c-3 -5 -1 -12 5 -16 5 -3 10 1 10 9 0 18 -6 21 -15 7z"/>
<path d="M2406 2498 c3 -4 9 -8 15 -8 5 0 9 4 9 8 0 5 -7 9 -15 9 -8 0 -12 -4
-9 -9z"/>
<path d="M1070 2479 c0 -5 5 -7 10 -4 6 3 10 8 10 11 0 2 -4 4 -10 4 -5 0 -10
-5 -10 -11z"/>
<path d="M1057 2430 c-3 -11 -2 -20 3 -20 12 0 21 28 11 35 -5 2 -11 -4 -14
-15z"/>
<path d="M2406 2338 c3 -5 10 -6 15 -3 13 9 11 12 -6 12 -8 0 -12 -4 -9 -9z"/>
<path d="M580 2206 c0 -2 7 -7 16 -10 8 -3 12 -2 9 4 -6 10 -25 14 -25 6z"/>
<path d="M1199 1488 c-7 -23 -4 -35 7 -35 10 0 11 4 3 13 -7 8 -6 14 3 17 10
4 10 6 1 6 -7 1 -13 0 -14 -1z"/>
<path d="M826 1394 c-11 -7 -18 -16 -15 -18 2 -2 13 2 23 10 11 7 18 16 15 18
-2 2 -13 -2 -23 -10z"/>
<path d="M775 1320 c3 -5 8 -10 11 -10 2 0 4 5 4 10 0 6 -5 10 -11 10 -5 0 -7
-4 -4 -10z"/>
<path d="M387 1128 c-12 -10 -14 -17 -6 -28 9 -13 10 -13 6 0 -2 8 3 20 12 27
9 7 13 13 10 13 -3 0 -13 -6 -22 -12z"/>
<path d="M2030 880 c-12 -7 -10 -9 7 -7 12 0 19 5 17 9 -6 10 -6 10 -24 -2z"/>
<path d="M580 679 c0 -5 5 -7 10 -4 6 3 10 8 10 11 0 2 -4 4 -10 4 -5 0 -10
-5 -10 -11z"/>
<path d="M955 499 c-4 -6 -4 -13 -1 -16 3 -4 6 -1 6 6 0 7 5 9 12 5 7 -4 8 -3
4 4 -9 15 -13 15 -21 1z"/>
<path d="M1054 476 c-3 -8 0 -24 6 -36 8 -15 8 -20 1 -16 -6 4 -11 2 -11 -3 0
-6 7 -11 15 -11 8 0 15 -6 15 -12 0 -9 3 -9 9 1 6 9 5 24 0 39 -8 20 -7 23 3
14 10 -8 13 -5 13 12 0 16 -6 23 -23 24 -12 1 -25 -5 -28 -12z"/>
<path d="M2004 418 c-14 -22 -13 -38 2 -38 24 0 29 4 26 20 -6 24 -19 33 -28
18z m19 -19 c4 -16 3 -18 -9 -8 -7 6 -11 15 -8 20 8 13 11 11 17 -12z"/>
<path d="M1990 361 c0 -6 5 -11 11 -11 6 0 3 -7 -6 -16 -12 -12 -13 -19 -4
-30 12 -15 39 -19 39 -6 0 4 -6 14 -12 21 -11 11 -10 13 0 7 8 -5 11 0 9 16
-4 23 -37 40 -37 19z"/>
<path d="M376 242 c-2 -4 0 -14 6 -22 8 -12 9 -12 5 2 -3 9 -1 19 6 22 9 3 9
5 0 5 -6 1 -14 -3 -17 -7z"/>
</g>
</svg>
